<svg id="visual" viewBox="0 0 900 600" width="900" height="600" xmlns="http://www.w3.org/2000/svg" xmlns:xlink="http://www.w3.org/1999/xlink" version="1.1"><rect x="0" y="0" width="900" height="600" fill="#001220"></rect><g fill="none" stroke="#FF6F61" stroke-width="2"><circle r="23" cx="20" cy="377"></circle><circle r="8" cx="82" cy="469"></circle><circle r="15" cx="765" cy="554"></circle><circle r="12" cx="532" cy="32"></circle><circle r="18" cx="848" cy="225"></circle><circle r="18" cx="646" cy="554"></circle><circle r="18" cx="268" cy="392"></circle><circle r="12" cx="775" cy="377"></circle><circle r="9" cx="675" cy="273"></circle><circle r="15" cx="363" cy="324"></circle><circle r="13" cx="402" cy="412"></circle><circle r="15" cx="740" cy="422"></circle><circle r="19" cx="368" cy="174"></circle><circle r="10" cx="212" cy="418"></circle><circle r="15" cx="564" cy="157"></circle><circle r="8" cx="626" cy="481"></circle><circle r="14" cx="9" cy="329"></circle><circle r="9" cx="133" cy="232"></circle><circle r="12" cx="682" cy="141"></circle><circle r="16" cx="415" cy="111"></circle><circle r="16" cx="280" cy="124"></circle><circle r="7" cx="804" cy="101"></circle><circle r="14" cx="597" cy="399"></circle><circle r="19" cx="286" cy="266"></circle><circle r="8" cx="143" cy="425"></circle><circle r="14" cx="91" cy="342"></circle><circle r="11" cx="174" cy="331"></circle><circle r="21" cx="11" cy="12"></circle><circle r="12" cx="555" cy="288"></circle><circle r="14" cx="447" cy="493"></circle><circle r="13" cx="116" cy="533"></circle><circle r="10" cx="435" cy="263"></circle><circle r="11" cx="495" cy="304"></circle><circle r="13" cx="88" cy="83"></circle><circle r="14" cx="217" cy="492"></circle><circle r="15" cx="741" cy="272"></circle><circle r="12" cx="160" cy="168"></circle><circle r="9" cx="390" cy="43"></circle><circle r="13" cx="639" cy="327"></circle><circle r="10" cx="884" cy="507"></circle><circle r="8" cx="462" cy="65"></circle><circle r="13" cx="29" cy="445"></circle><circle r="13" cx="786" cy="191"></circle><circle r="14" cx="844" cy="587"></circle><circle r="14" cx="850" cy="160"></circle></g></svg>