<svg id="eUvL0XZJNem1" xmlns="http://www.w3.org/2000/svg" xmlns:xlink="http://www.w3.org/1999/xlink" viewBox="0 0 512 512" shape-rendering="geometricPrecision" text-rendering="geometricPrecision"><g><g transform="matrix(1 0 0 2.69865 0-574.291206)"><polygon points="0,-51.2 48.694094,-15.82167 48.694094,41.42167 -48.694094,41.42167 -48.694094,-15.82167 0,-51.2" transform="translate(48.694094 361.109672)" fill="#d2dbed" stroke-width="0"/><polygon points="0,-51.2 48.694094,-15.82167 48.694094,41.42167 -48.694094,41.42167 -48.694094,-15.82167 0,-51.2" transform="translate(146.082282 361.109672)" fill="#d2dbed" stroke-width="0"/><polygon points="0,-51.2 48.694094,-15.82167 48.694094,41.42167 -48.694094,41.42167 -48.694094,-15.82167 0,-51.2" transform="translate(243.47047 361.109672)" fill="#d2dbed" stroke-width="0"/><polygon points="0,-51.2 48.694094,-15.82167 48.694094,41.42167 -48.694094,41.42167 -48.694094,-15.82167 0,-51.2" transform="translate(340.858658 361.109672)" fill="#d2dbed" stroke-width="0"/><polygon points="0,-51.2 48.694094,-15.82167 48.694094,41.42167 -48.694094,41.42167 -48.694094,-15.82167 0,-51.2" transform="translate(438.246846 361.109672)" fill="#d2dbed" stroke-width="0"/><polygon points="0,-51.2 48.694094,-15.82167 48.694094,41.42167 -48.694094,41.42167 -48.694094,-15.82167 0,-51.2" transform="translate(535.635034 361.109672)" fill="#d2dbed" stroke-width="0"/></g></g><g transform="translate(0 0.000001)"><g transform="matrix(1 0 0 2.854874-8.750593-481.692808)"><g><polygon points="-6.854827,-34.45597 41.839267,1.226738 41.839267,58.1657 -55.548921,58.1657 -55.548921,1.226738 -6.854827,-34.45597" transform="matrix(-1 0 0-1 99.283954 226.892168)" fill="#d2dbed" stroke-width="0"/><polygon points="-6.854827,-34.45597 41.839267,1.226738 41.839267,58.1657 -55.548921,58.1657 -55.548921,1.226738 -6.854827,-34.45597" transform="matrix(-1 0 0-1 196.672142 226.892168)" fill="#d2dbed" stroke-width="0"/><polygon points="-6.854827,-34.45597 41.839267,1.226738 41.839267,58.1657 -55.548921,58.1657 -55.548921,1.226738 -6.854827,-34.45597" transform="matrix(-1 0 0-1 294.06033 226.892168)" fill="#d2dbed" stroke-width="0"/><polygon points="-6.854827,-34.45597 41.839267,1.226738 41.839267,58.1657 -55.548921,58.1657 -55.548921,1.226738 -6.854827,-34.45597" transform="matrix(-1 0 0-1 391.448518 226.892168)" fill="#d2dbed" stroke-width="0"/><g><polygon points="-6.854827,-34.45597 41.839267,0.92236 41.839267,58.1657 -55.548921,58.1657 -55.548921,0.92236 -6.854827,-34.45597" transform="matrix(-1 0 0-1 3.891305 226.892168)" fill="#d2dbed" stroke-width="0"/></g><polygon points="-6.854827,-34.45597 41.839267,1.226738 41.839267,58.1657 -55.548921,58.1657 -55.548921,1.226738 -6.854827,-34.45597" transform="matrix(-1 0 0-1 488.836706 226.892168)" fill="#d2dbed" fill-rule="evenodd" stroke-width="0"/></g></g></g></svg>
